PathFileType	4	(X/Y/Z)	./resultDataOpenSim/trcMotMarkerGrf/sub06/qtm-04-01.trc
DataRate	CameraRate	NumFrames	NumMarkers	Units	OrigDataRate	OrigDataStartFrame	OrigNumFrames
250.000000	250.000000	9	24	m	250.000000	193	513
Frame#	Time	L.Toe.Tip			R.Toe.Tip			L.Ankle.Lat			R.Ankle.Lat			L.Ankle.Med			R.Ankle.Med			L.Heel			R.Heel			L.Knee.Lat			R.Knee.Lat			L.Knee.Med			R.Knee.Med			L.Thigh.Upper			R.Thigh.Upper			L.ASIS			R.ASIS			V.Sacral			L.Acromium			R.Acromium			C7			L.Elbow			R.Elbow			L.Wrist.Lat			R.Wrist.Lat
		X1	Y1	Z1	X2	Y2	Z2	X3	Y3	Z3	X4	Y4	Z4	X5	Y5	Z5	X6	Y6	Z6	X7	Y7	Z7	X8	Y8	Z8	X9	Y9	Z9	X10	Y10	Z10	X11	Y11	Z11	X12	Y12	Z12	X13	Y13	Z13	X14	Y14	Z14	X15	Y15	Z15	X16	Y16	Z16	X17	Y17	Z17	X18	Y18	Z18	X19	Y19	Z19	X20	Y20	Z20	X21	Y21	Z21	X22	Y22	Z22	X23	Y23	Z23	X24	Y24	Z24

193	0.768	0.036355252	-0.0394321	2.9942639e-05	-0.51526936	0.087410691	0.14225355	-0.084163892	-0.0094009319	-0.03068521	-0.51792879	0.22679481	0.16613438	-0.092086511	0.0054836319	0.05720439	-0.47985441	0.21206681	0.085571158	-0.16401932	-0.034427237	0.0076947213	-0.54275686	0.27138042	0.10168997	0.012716229	0.35007858	-0.051049832	-0.15940253	0.32208216	0.22182284	-0.01816042	0.35263776	0.066233474	-0.17065236	0.30938713	0.088425262	-0.11572697	0.72420519	-0.13189154	-0.20494538	0.68574677	0.20018713	-0.062622992	0.76226586	-0.072339645	-0.10201192	0.74724326	0.17106006	-0.27000262	0.83291104	0.029168839	-0.12975125	1.2296175	-0.1535447	-0.1462379	1.2313427	0.21018045	-0.21615391	1.2727884	0.023064667	-0.2173052	0.92802534	-0.1939305	-0.21645521	0.91904575	0.28290843	-0.12076942	0.70629946	-0.24253077	-0.032791928	0.75231266	0.30456702
194	0.772	0.036370067	-0.039431934	0.00010485	-0.49641483	0.08790889	0.14357771	-0.084204471	-0.0093333779	-0.030746747	-0.5017455	0.22702626	0.16697988	-0.092222728	0.0054987863	0.057314253	-0.46362455	0.21280129	0.086511382	-0.16401995	-0.034279357	0.0076729589	-0.52757885	0.27125328	0.10274862	0.014367145	0.34992935	-0.050356603	-0.14406031	0.32482704	0.22176688	-0.017583695	0.35290621	0.066747327	-0.15557091	0.31196935	0.088226876	-0.1099136	0.72546625	-0.13194399	-0.19835688	0.68812824	0.20049204	-0.056421746	0.76405837	-0.072311229	-0.095938425	0.74958023	0.17135182	-0.26352	0.83512989	0.028985086	-0.12226981	1.2319076	-0.15321342	-0.14000419	1.2334951	0.21055589	-0.20896549	1.2749557	0.023168764	-0.20872035	0.92971076	-0.19458876	-0.21141591	0.92147513	0.28242606	-0.10923246	0.70881647	-0.2416261	-0.030808197	0.75216891	0.30524016
195	0.776	0.036378365	-0.039429872	0.00016803696	-0.47729675	0.088251959	0.14488138	-0.084235114	-0.0092522491	-0.030775745	-0.48560945	0.22699559	0.16779074	-0.092428662	0.0055058411	0.057454616	-0.44732354	0.2133781	0.087442009	-0.16402486	-0.034126252	0.0076413388	-0.51244605	0.27082076	0.10381332	0.015864014	0.34989324	-0.049682268	-0.1287747	0.3278523	0.22167663	-0.017085195	0.35311067	0.067264758	-0.14054886	0.31482164	0.08805034	-0.10436324	0.72672016	-0.13199817	-0.1917149	0.69055438	0.2008812	-0.050264544	0.76583318	-0.072333591	-0.089832809	0.75190442	0.17159609	-0.25684513	0.83734324	0.029014722	-0.11487124	1.2342171	-0.15287767	-0.13379533	1.2356643	0.21093236	-0.20179996	1.2771381	0.023301563	-0.20010216	0.93141623	-0.19533808	-0.20646414	0.92395488	0.28200516	-0.097617281	0.71143084	-0.24062831	-0.028867698	0.75216354	0.30591481
196	0.78	0.036380387	-0.039425892	0.00022168584	-0.45792727	0.088459027	0.14617917	-0.084240013	-0.0091577874	-0.030748773	-0.46939645	0.22677791	0.16862111	-0.092638019	0.0055458409	0.057590255	-0.4309178	0.21375042	0.088346932	-0.1640338	-0.033966475	0.007607216	-0.49736949	0.27007467	0.10489841	0.017189605	0.34996389	-0.049053512	-0.11356245	0.33114585	0.22155522	-0.016663478	0.35325367	0.067761455	-0.12566041	0.31791457	0.087873648	-0.09889763	0.72799828	-0.13201587	-0.18500931	0.69303707	0.20134977	-0.044189203	0.76757153	-0.072413428	-0.083681718	0.75422553	0.17179257	-0.25005329	0.83952496	0.029138966	-0.10745519	1.2365142	-0.152535	-0.12758753	1.2378386	0.21129578	-0.19465609	1.2793263	0.023460555	-0.19145668	0.9331358	-0.19616534	-0.20164545	0.92647915	0.28163781	-0.085928676	0.71414345	-0.23953962	-0.026945305	0.75228354	0.30659002
197	0.784	0.036376343	-0.039419636	0.00027096146	-0.43829847	0.088571741	0.14748927	-0.084210467	-0.0090428585	-0.030658232	-0.45298068	0.226439	0.16952873	-0.09275292	0.0056737005	0.057655371	-0.4144366	0.2139139	0.089290215	-0.16405081	-0.033802703	0.0075808054	-0.48233926	0.26900579	0.10598414	0.018364162	0.35012963	-0.048471319	-0.098443814	0.33469552	0.2213978	-0.01641306	0.353322	0.068158738	-0.11086872	0.32120441	0.087695628	-0.093444244	0.7293215	-0.13198653	-0.17821744	0.69561499	0.20184415	-0.038199044	0.76926939	-0.072564359	-0.077464845	0.75655794	0.17194144	-0.24325566	0.84166869	0.02931062	-0.099979745	1.2387804	-0.1521651	-0.12136464	1.2400129	0.21164015	-0.18753493	1.281509	0.023647104	-0.18280228	0.93486659	-0.19703419	-0.19694351	0.92904309	0.28131311	-0.074214044	0.71693939	-0.23838948	-0.025013536	0.75251428	0.30726779
198	0.788	0.036367563	-0.039411598	0.00031902236	-0.41839633	0.088622985	0.14883223	-0.084139749	-0.0088940017	-0.030509975	-0.43624755	0.22602534	0.17056656	-0.092762028	0.005899147	0.057615011	-0.39794848	0.21388361	0.090265025	-0.16408174	-0.033641095	0.0075778237	-0.46734704	0.26761495	0.10701302	0.019403922	0.35036787	-0.047930632	-0.083432514	0.33848457	0.22118977	-0.01646522	0.35330909	0.068389247	-0.096244777	0.32468972	0.087526917	-0.088097559	0.73067348	-0.13195399	-0.17127985	0.69832671	0.20226436	-0.03227191	0.77092978	-0.072791724	-0.071163968	0.75891246	0.17203716	-0.23654532	0.84379212	0.029543244	-0.092531616	1.2410424	-0.15175536	-0.11510964	1.2421812	0.21196722	-0.18043899	1.2836768	0.023863273	-0.17415361	0.93660813	-0.19792103	-0.19231114	0.93164852	0.28101755	-0.062503508	0.7198028	-0.23720131	-0.023057356	0.75284761	0.30795177
199	0.792	0.036357719	-0.039402652	0.0003653861	-0.39824486	0.088600358	0.15019982	-0.084037753	-0.008705763	-0.030328096	-0.41917724	0.22552885	0.17173988	-0.092745758	0.006169264	0.057515933	-0.38149472	0.21366171	0.091133768	-0.16411996	-0.033485883	0.0076389296	-0.45238783	0.26590602	0.10794072	0.020304785	0.3506442	-0.047428064	-0.068536714	0.34249105	0.2209183	-0.016918691	0.35323687	0.068470635	-0.082038113	0.3284351	0.087346581	-0.082937174	0.73202304	-0.13196517	-0.16411901	0.70116235	0.20257955	-0.026367789	0.77255931	-0.073084639	-0.064769978	0.76129412	0.1720726	-0.22995252	0.84591636	0.029840953	-0.085221299	1.2433502	-0.15131867	-0.10880151	1.2443315	0.21227755	-0.17336969	1.2858262	0.024107444	-0.16551606	0.9383604	-0.19881705	-0.18770383	0.93429565	0.28074025	-0.050792938	0.72273041	-0.23597745	-0.021097065	0.75328705	0.30864605
200	0.796	0.036351815	-0.039392571	0.00040718655	-0.37790347	0.088463589	0.15155241	-0.083951943	-0.0084893188	-0.030171576	-0.40196111	0.22483665	0.17295082	-0.09276085	0.0064312152	0.057438693	-0.36504696	0.21323768	0.091782106	-0.16414011	-0.033326726	0.0078067157	-0.43744177	0.26387395	0.10878482	0.021054326	0.3509226	-0.04697098	-0.053769868	0.34668937	0.22058869	-0.017772606	0.35316323	0.068504129	-0.06838257	0.33252301	0.087119705	-0.077920698	0.73335614	-0.13200956	-0.15672689	0.70402503	0.20292203	-0.020432404	0.77416771	-0.07342636	-0.058280945	0.76370363	0.17204243	-0.22345056	0.84805304	0.030137282	-0.078050262	1.2457178	-0.15087529	-0.10242668	1.2464511	0.21256544	-0.1663237	1.287956	0.024373032	-0.15689217	0.94012272	-0.19971455	-0.18309908	0.93697815	0.28047246	-0.039076353	0.72572751	-0.23470913	-0.019197469	0.75384212	0.30935229
201	0.8	0.036353208	-0.039380489	0.00044040734	-0.35740119	0.088200767	0.15286757	-0.083929573	-0.0082609733	-0.030097079	-0.38493281	0.22376714	0.17403503	-0.092790201	0.0066819175	0.057412422	-0.34856811	0.21261563	0.092225107	-0.1641321	-0.033134225	0.0080263388	-0.4224688	0.2615096	0.10959911	0.021654237	0.35117784	-0.046578613	-0.039148804	0.35105495	0.22021869	-0.018710369	0.35319677	0.068611361	-0.055030657	0.33688147	0.086847475	-0.073000246	0.73467112	-0.1320401	-0.14924607	0.7068003	0.20347441	-0.014420035	0.77576628	-0.073800842	-0.051694433	0.76614186	0.17194293	-0.21699724	0.85019958	0.030271708	-0.070947057	1.2481137	-0.1504339	-0.09598393	1.2485319	0.21282404	-0.159293	1.2900557	0.024650842	-0.14828593	0.94189486	-0.20060317	-0.17849226	0.93968498	0.2801835	-0.027360799	0.72879392	-0.23339736	-0.017418427	0.75451229	0.31006891
